<svg width="246" height="48" viewBox="0 0 246 48" fill="none" xmlns="http://www.w3.org/2000/svg">
<path d="M24.8836 6.34628V12.6823H8.1402V23.3743H21.5575V29.484H8.1402V46.2857H0.19133V6.34628H24.8836ZM39.8908 40.176H53.2516V46.2857H31.9419V6.34628H39.8908V40.176ZM67.6225 12.6823V23.0349H81.7162V29.1446H67.6225V39.8931H83.4075V46.2857H59.6736V6.34628H83.4075V12.6823H67.6225ZM114.379 46.2857L105.416 32.652L97.4669 46.2857H88.3905L100.906 25.8634L88.0523 6.34628H97.4669L106.261 19.6971L114.098 6.34628H123.174L110.715 26.4291L123.794 46.2857H114.379Z" fill="#00A0FF"/>
<path d="M137.73 4.42284V46.2857H129.781V4.42284H137.73ZM145.71 5.95027C145.71 4.66798 146.161 3.63084 147.063 2.83884C147.965 2.00913 149.149 1.59427 150.615 1.59427C152.081 1.59427 153.264 2.00913 154.166 2.83884C155.068 3.63084 155.519 4.66798 155.519 5.95027C155.519 7.19484 155.068 8.23198 154.166 9.0617C153.264 9.8537 152.081 10.2497 150.615 10.2497C149.149 10.2497 147.965 9.8537 147.063 9.0617C146.161 8.23198 145.71 7.19484 145.71 5.95027ZM154.561 14.9451V46.2857H146.612V14.9451H154.561ZM174.211 14.5491C178.007 14.5491 181.051 15.5108 183.343 17.4343C185.636 19.3577 187.064 21.9223 187.628 25.128H180.186C179.886 23.6194 179.209 22.4126 178.157 21.5074C177.105 20.6023 175.733 20.1497 174.042 20.1497C172.689 20.1497 171.636 20.4703 170.885 21.1114C170.133 21.7526 169.757 22.62 169.757 23.7137C169.757 24.5811 170.058 25.2788 170.659 25.8068C171.26 26.3348 172.012 26.7497 172.914 27.0514C173.816 27.3531 175.113 27.7114 176.804 28.1263C179.172 28.6543 181.088 29.22 182.554 29.8234C184.058 30.3891 185.335 31.3131 186.388 32.5954C187.478 33.84 188.023 35.5371 188.023 37.6868C188.023 40.3646 186.97 42.5331 184.866 44.1926C182.798 45.852 179.999 46.6817 176.466 46.6817C172.407 46.6817 169.156 45.7766 166.713 43.9663C164.27 42.1183 162.786 39.4971 162.259 36.1028H169.87C170.058 37.6491 170.734 38.8748 171.899 39.78C173.064 40.6474 174.587 41.0811 176.466 41.0811C177.819 41.0811 178.852 40.7606 179.566 40.1194C180.28 39.4406 180.637 38.5731 180.637 37.5171C180.637 36.612 180.318 35.8766 179.679 35.3108C179.078 34.7451 178.307 34.3114 177.368 34.0097C176.466 33.708 175.169 33.3497 173.478 32.9348C171.148 32.4068 169.25 31.8788 167.784 31.3508C166.356 30.7851 165.116 29.8988 164.063 28.692C163.049 27.4851 162.541 25.8257 162.541 23.7137C162.541 20.9983 163.575 18.792 165.642 17.0948C167.709 15.3977 170.565 14.5491 174.211 14.5491ZM212.322 39.4406V46.2857H208.15C204.655 46.2857 201.968 45.4371 200.089 43.74C198.247 42.0428 197.326 39.2143 197.326 35.2543V21.6771H192.985V14.9451H197.326V7.19484H205.275V14.9451H212.266V21.6771H205.275V35.3674C205.275 36.876 205.576 37.932 206.177 38.5354C206.778 39.1388 207.793 39.4406 209.221 39.4406H212.322ZM230.5 14.5491C234.296 14.5491 237.34 15.5108 239.633 17.4343C241.926 19.3577 243.354 21.9223 243.918 25.128H236.476C236.175 23.6194 235.499 22.4126 234.447 21.5074C233.394 20.6023 232.022 20.1497 230.331 20.1497C228.978 20.1497 227.926 20.4703 227.174 21.1114C226.422 21.7526 226.047 22.62 226.047 23.7137C226.047 24.5811 226.347 25.2788 226.949 25.8068C227.55 26.3348 228.302 26.7497 229.204 27.0514C230.106 27.3531 231.402 27.7114 233.094 28.1263C235.461 28.6543 237.378 29.22 238.844 29.8234C240.347 30.3891 241.625 31.3131 242.677 32.5954C243.767 33.84 244.312 35.5371 244.312 37.6868C244.312 40.3646 243.26 42.5331 241.155 44.1926C239.088 45.852 236.288 46.6817 232.755 46.6817C228.696 46.6817 225.445 45.7766 223.002 43.9663C220.559 42.1183 219.075 39.4971 218.549 36.1028H226.159C226.347 37.6491 227.024 38.8748 228.189 39.78C229.354 40.6474 230.876 41.0811 232.755 41.0811C234.108 41.0811 235.142 40.7606 235.856 40.1194C236.57 39.4406 236.927 38.5731 236.927 37.5171C236.927 36.612 236.608 35.8766 235.969 35.3108C235.367 34.7451 234.597 34.3114 233.657 34.0097C232.755 33.708 231.459 33.3497 229.767 32.9348C227.437 32.4068 225.539 31.8788 224.073 31.3508C222.645 30.7851 221.405 29.8988 220.353 28.692C219.338 27.4851 218.831 25.8257 218.831 23.7137C218.831 20.9983 219.864 18.792 221.931 17.0948C223.998 15.3977 226.855 14.5491 230.5 14.5491Z" fill="#27333F"/>
</svg>
