<svg width="301" height="261" viewBox="0 0 301 261" fill="none" xmlns="http://www.w3.org/2000/svg">
<rect x="106.833" y="-224" width="296" height="398.2" transform="rotate(49.0676 106.833 -224)" fill="#232323"/>
<path d="M49.4982 124.152L47.3331 126.09L34.4814 111.738L31.5675 117.22L29.8164 115.265L33.9117 107.424L34.2492 107.122L49.4982 124.152ZM49.1879 109.119L42.4822 99.8967L51.1659 92.1211L52.9483 94.1116L46.0921 100.251L49.7178 105.331C50.1104 104.098 50.8344 103.01 51.8898 102.065C53.4341 100.682 55.1189 100.096 56.944 100.307C58.7623 100.511 60.4497 101.482 62.0062 103.22C63.5696 104.966 64.3296 106.768 64.2862 108.624C64.2436 110.466 63.3764 112.144 61.6847 113.659C60.1869 115 58.5929 115.68 56.9027 115.697C55.2124 115.714 53.6446 115.049 52.1994 113.7L54.2365 111.876C55.237 112.728 56.239 113.152 57.2425 113.149C58.239 113.137 59.1951 112.721 60.1108 111.902C61.1119 111.005 61.5899 109.962 61.5449 108.772C61.5077 107.575 60.9506 106.375 59.8735 105.172C58.859 104.039 57.7356 103.409 56.5033 103.282C55.2718 103.14 54.1439 103.528 53.1195 104.445C52.1805 105.286 51.6274 106.152 51.4602 107.042L51.3068 108.019L49.1879 109.119ZM73.2776 87.6535L70.0817 75.1836L72.6193 72.9114L76.2921 88.7715L81.9518 95.0923L79.7168 97.0935L74.0571 90.7727L58.6973 85.3774L61.2582 83.0843L73.2776 87.6535ZM92.5491 71.4881L85.2039 78.0651L90.5822 84.0716L99.1147 76.4315L100.751 78.259L89.9837 87.9003L74.8077 70.9518L85.4587 61.4147L87.1056 63.2539L78.6895 70.7898L83.5675 76.2375L90.9127 69.6606L92.5491 71.4881ZM108.931 62.9644L101.831 69.3224L104.197 75.1738L101.892 77.2375L93.188 54.4938L95.1436 52.7427L116.803 63.8856L114.51 65.9389L108.931 62.9644ZM100.859 66.8787L106.621 61.7193L96.6361 56.3771L100.859 66.8787ZM119.162 49.4205L115.181 52.9852L121.32 59.8414L119.073 61.8531L103.897 44.9046L109.508 39.8807C111.417 38.1713 113.273 37.2926 115.075 37.2445C116.886 37.1895 118.534 37.9923 120.022 39.653C120.967 40.7084 121.503 41.8851 121.63 43.1831C121.766 44.4741 121.499 45.7688 120.83 47.0671L131.252 50.6962L131.377 50.8359L128.979 52.9831L119.162 49.4205ZM113.544 51.1577L116.978 48.0829C118.088 47.0892 118.712 46.0134 118.849 44.8554C118.995 43.6905 118.637 42.6269 117.775 41.6647C116.837 40.617 115.803 40.0952 114.674 40.0994C113.553 40.0965 112.399 40.6193 111.213 41.6678L107.791 44.7321L113.544 51.1577ZM132.004 36.6626C129.594 37.828 127.593 38.4036 126 38.3895C124.408 38.3607 123.084 37.7565 122.028 36.5769C120.833 35.2421 120.378 33.6642 120.663 31.8431C120.948 30.0072 121.945 28.3249 123.652 26.7962C124.816 25.7539 126.054 25.0513 127.365 24.6884C128.683 24.3186 129.946 24.3071 131.151 24.6539C132.364 24.9938 133.391 25.6332 134.232 26.5722L131.985 28.5839C131.068 27.5595 130.023 27.0482 128.85 27.0498C127.67 27.0437 126.486 27.5723 125.299 28.6354C124.197 29.6221 123.555 30.6379 123.371 31.6827C123.189 32.7128 123.484 33.6585 124.255 34.5199C124.873 35.2106 125.689 35.5359 126.702 35.4959C127.716 35.4412 129.102 34.9828 130.861 34.1209C132.628 33.252 134.122 32.7037 135.345 32.4761C136.568 32.2338 137.654 32.2605 138.605 32.5564C139.562 32.8453 140.427 33.4204 141.198 34.2818C142.428 35.6554 142.879 37.2368 142.552 39.0261C142.218 40.8076 141.154 42.501 139.361 44.1061C138.197 45.1484 136.913 45.9001 135.508 46.3611C134.096 46.8143 132.767 46.8996 131.521 46.6169C130.283 46.3273 129.223 45.6897 128.341 44.7041L130.587 42.6925C131.504 43.7169 132.607 44.1908 133.895 44.1143C135.183 44.0231 136.46 43.4112 137.725 42.2786C138.905 41.2224 139.593 40.1723 139.791 39.1283C139.989 38.0843 139.716 37.1471 138.972 36.3168C138.229 35.4864 137.365 35.1068 136.38 35.1778C135.388 35.2411 133.929 35.7361 132.004 36.6626ZM75.7667 151.638C75.4202 151.501 74.9232 151.149 74.2758 150.582C74.2058 152.518 73.4763 154.108 72.0872 155.352C70.8456 156.464 69.5124 157.028 68.0877 157.046C66.6638 157.048 65.469 156.51 64.5031 155.432C63.3287 154.12 62.9151 152.659 63.2622 151.048C63.6101 149.422 64.6881 147.799 66.4963 146.18L68.5916 144.304L67.7056 143.315C67.0316 142.562 66.2715 142.166 65.4253 142.127C64.5722 142.079 63.7072 142.449 62.8303 143.234C62.062 143.922 61.5916 144.692 61.4191 145.546C61.2466 146.4 61.407 147.102 61.9004 147.653L59.7353 149.592C59.1724 148.963 58.8516 148.16 58.7728 147.182C58.6948 146.189 58.8831 145.181 59.3379 144.159C59.8004 143.129 60.4896 142.205 61.4053 141.385C62.8564 140.085 64.3199 139.432 65.7957 139.425C67.2645 139.41 68.5842 140.025 69.7549 141.27L74.9456 147.067C75.9809 148.223 76.9518 149.011 77.8582 149.43L78.0249 149.616L75.7667 151.638ZM70.7234 153.197C71.3986 152.592 71.8824 151.844 72.175 150.953C72.4677 150.062 72.4996 149.215 72.2709 148.413L69.957 145.829L68.2691 147.34C65.6306 149.703 65.0028 151.656 66.3856 153.201C66.9901 153.876 67.6877 154.202 68.4783 154.179C69.2688 154.156 70.0172 153.829 70.7234 153.197ZM71.7176 132.57L73.205 134.091C73.0833 132.019 73.7985 130.288 75.3505 128.898C78.0123 126.514 80.6994 126.814 83.4119 129.796L90.8644 138.119L88.7109 140.048L81.248 131.713C80.4272 130.812 79.6166 130.328 78.8162 130.262C78.0235 130.189 77.1965 130.538 76.3351 131.309C75.6367 131.934 75.1904 132.67 74.9962 133.515C74.802 134.36 74.8285 135.217 75.0756 136.086L83.1118 145.061L80.9583 146.989L69.6806 134.394L71.7176 132.57ZM84.8714 120.792L86.3587 122.313C86.237 120.24 86.9522 118.51 88.5043 117.12C91.166 114.736 93.8532 115.036 96.5656 118.018L104.018 126.341L101.865 128.269L94.4017 119.935C93.5809 119.034 92.7703 118.55 91.9699 118.484C91.1772 118.411 90.3502 118.76 89.4888 119.531C88.7904 120.156 88.3441 120.892 88.1499 121.737C87.9558 122.582 87.9822 123.439 88.2293 124.308L96.2655 133.283L94.112 135.211L82.8343 122.616L84.8714 120.792ZM109.605 121.338L107.452 123.266L96.1743 110.671L98.3277 108.743L109.605 121.338ZM93.0082 107.487C92.6955 107.138 92.5362 106.749 92.5304 106.321C92.5322 105.886 92.7427 105.481 93.1618 105.105C93.5808 104.73 94.0067 104.565 94.4394 104.611C94.8721 104.657 95.2448 104.855 95.5575 105.204C95.8702 105.553 96.0221 105.942 96.0133 106.369C96.0045 106.797 95.7905 107.198 95.3715 107.573C94.9524 107.948 94.53 108.117 94.1042 108.079C93.6863 108.033 93.3209 107.836 93.0082 107.487ZM114.602 111.6L109.06 99.133L111.26 97.1631L118.022 113.802L116.38 115.272L100.539 106.763L102.739 104.793L114.602 111.6ZM129.882 103.602C128.175 105.13 126.285 105.815 124.214 105.657C122.135 105.49 120.255 104.468 118.574 102.59L118.219 102.195C117.101 100.945 116.34 99.6196 115.938 98.2179C115.537 96.8015 115.516 95.4357 115.876 94.1203C116.238 92.7903 116.919 91.6771 117.92 90.7807C119.557 89.3145 121.313 88.7142 123.187 88.9799C125.06 89.2456 126.897 90.3834 128.697 92.3933L129.499 93.2896L120.967 100.93C122.11 102.144 123.371 102.825 124.749 102.975C126.129 103.11 127.354 102.699 128.425 101.74C129.185 101.059 129.69 100.327 129.94 99.5437C130.19 98.7608 130.283 97.9361 130.22 97.0695L132.453 96.9161C132.85 99.483 131.993 101.711 129.882 103.602ZM119.504 92.55C118.635 93.3283 118.19 94.2996 118.17 95.4641C118.143 96.6208 118.571 97.832 119.453 99.0979L125.762 93.4486L125.616 93.2856C124.574 92.247 123.522 91.6652 122.459 91.5401C121.389 91.4073 120.404 91.744 119.504 92.55ZM133.629 80.6153C133.254 80.8528 132.877 81.1418 132.497 81.4823C131.084 82.747 130.665 84.2066 131.237 85.8611L139.242 94.801L137.089 96.7292L125.811 84.1343L127.906 82.2581L129.244 83.6819C128.943 81.9243 129.44 80.4653 130.736 79.3049C131.155 78.9296 131.522 78.6991 131.836 78.6131L133.629 80.6153ZM149.509 79.5883C148.988 79.0063 148.364 78.7542 147.637 78.8321C146.91 78.8953 145.896 79.3004 144.593 80.0473C143.298 80.7873 142.183 81.2828 141.247 81.5336C140.318 81.7774 139.498 81.8133 138.784 81.6411C138.079 81.462 137.448 81.0621 136.892 80.4412C135.968 79.4091 135.621 78.147 135.85 76.6548C136.088 75.1556 136.886 73.798 138.244 72.582C139.672 71.3034 141.158 70.6367 142.703 70.5818C144.256 70.5199 145.546 71.0632 146.574 72.2117L144.409 74.1504C143.881 73.5606 143.174 73.2782 142.287 73.303C141.408 73.3209 140.589 73.6704 139.828 74.3513C139.044 75.0532 138.584 75.7728 138.448 76.5104C138.311 77.2479 138.489 77.8922 138.983 78.4431C139.448 78.9631 140.005 79.1708 140.652 79.0664C141.3 78.962 142.267 78.5506 143.553 77.8322C144.847 77.1069 145.978 76.6123 146.944 76.3484C147.91 76.0845 148.764 76.0468 149.506 76.2353C150.249 76.4091 150.923 76.8335 151.527 77.5087C152.535 78.6339 152.894 79.941 152.605 81.43C152.31 82.9112 151.444 84.2945 150.008 85.58C149 86.4834 147.947 87.104 146.852 87.4419C145.756 87.7798 144.702 87.8286 143.69 87.5883C142.679 87.3334 141.839 86.8334 141.172 86.0884L143.326 84.1601C144.011 84.8471 144.812 85.1642 145.73 85.1116C146.648 85.0442 147.55 84.6145 148.435 83.8223C149.249 83.0927 149.755 82.3461 149.952 81.5824C150.15 80.804 150.003 80.1393 149.509 79.5883ZM165.235 71.5263C164.889 71.3891 164.392 71.0371 163.744 70.4702C163.674 72.4065 162.945 73.9965 161.556 75.2404C160.314 76.3522 158.981 76.9167 157.556 76.934C156.132 76.9366 154.938 76.3985 153.972 75.3198C152.797 74.0083 152.384 72.547 152.731 70.9359C153.079 69.31 154.157 67.6876 155.965 66.0685L158.06 64.1924L157.174 63.2029C156.5 62.4502 155.74 62.0542 154.894 62.0148C154.041 61.9678 153.176 62.3368 152.299 63.122C151.531 63.81 151.06 64.5807 150.888 65.4343C150.715 66.2879 150.876 66.9902 151.369 67.5411L149.204 69.4798C148.641 68.8512 148.32 68.0479 148.241 67.0698C148.163 66.077 148.352 65.0694 148.806 64.0469C149.269 63.0176 149.958 62.0929 150.874 61.273C152.325 59.9736 153.788 59.3203 155.264 59.3132C156.733 59.2984 158.053 59.9134 159.223 61.1583L164.414 66.9552C165.449 68.1115 166.42 68.8991 167.327 69.3179L167.494 69.5042L165.235 71.5263ZM160.192 73.0848C160.867 72.4803 161.351 71.7324 161.644 70.8412C161.936 69.95 161.968 69.1034 161.739 68.3015L159.426 65.7173L157.738 67.2286C155.099 69.5912 154.471 71.5446 155.854 73.0889C156.459 73.7641 157.156 74.0903 157.947 74.0675C158.737 74.0447 159.486 73.7172 160.192 73.0848ZM166.967 50.7636C166.593 51.0012 166.215 51.2902 165.835 51.6307C164.423 52.8953 164.003 54.3549 164.575 56.0094L172.58 64.9493L170.427 66.8776L159.149 54.2826L161.244 52.4064L162.582 53.8302C162.281 52.0726 162.778 50.6136 164.074 49.4532C164.493 49.078 164.86 48.8474 165.175 48.7615L166.967 50.7636ZM180.011 52.612L174.491 40.545L176.796 38.4812L184.751 57.5542C185.843 60.3513 185.536 62.5142 183.829 64.0429L183.39 64.3728L182.451 64.9407L180.888 63.1946L181.511 62.72C182.241 62.0668 182.675 61.4121 182.815 60.7559C182.962 60.0927 182.817 59.2511 182.379 58.2311L181.709 56.5233L166.064 48.0913L168.415 45.9858L180.011 52.612Z" fill="white"/>
<path d="M49.4982 124.152L47.3331 126.09L34.4814 111.738L31.5675 117.22L29.8164 115.265L33.9117 107.424L34.2492 107.122L49.4982 124.152ZM49.1879 109.119L42.4822 99.8967L51.1659 92.1211L52.9483 94.1116L46.0921 100.251L49.7178 105.331C50.1104 104.098 50.8344 103.01 51.8898 102.065C53.4341 100.682 55.1189 100.096 56.944 100.307C58.7623 100.511 60.4497 101.482 62.0062 103.22C63.5696 104.966 64.3296 106.768 64.2862 108.624C64.2436 110.466 63.3764 112.144 61.6847 113.659C60.1869 115 58.5929 115.68 56.9027 115.697C55.2124 115.714 53.6446 115.049 52.1994 113.7L54.2365 111.876C55.237 112.728 56.239 113.152 57.2425 113.149C58.239 113.137 59.1951 112.721 60.1108 111.902C61.1119 111.005 61.5899 109.962 61.5449 108.772C61.5077 107.575 60.9506 106.375 59.8735 105.172C58.859 104.039 57.7356 103.409 56.5033 103.282C55.2718 103.14 54.1439 103.528 53.1195 104.445C52.1805 105.286 51.6274 106.152 51.4602 107.042L51.3068 108.019L49.1879 109.119ZM73.2776 87.6535L70.0817 75.1836L72.6193 72.9114L76.2921 88.7715L81.9518 95.0923L79.7168 97.0935L74.0571 90.7727L58.6973 85.3774L61.2582 83.0843L73.2776 87.6535ZM92.5491 71.4881L85.2039 78.0651L90.5822 84.0716L99.1147 76.4315L100.751 78.259L89.9837 87.9003L74.8077 70.9518L85.4587 61.4147L87.1056 63.2539L78.6895 70.7898L83.5675 76.2375L90.9127 69.6606L92.5491 71.4881ZM108.931 62.9644L101.831 69.3224L104.197 75.1738L101.892 77.2375L93.188 54.4938L95.1436 52.7427L116.803 63.8856L114.51 65.9389L108.931 62.9644ZM100.859 66.8787L106.621 61.7193L96.6361 56.3771L100.859 66.8787ZM119.162 49.4205L115.181 52.9852L121.32 59.8414L119.073 61.8531L103.897 44.9046L109.508 39.8807C111.417 38.1713 113.273 37.2926 115.075 37.2445C116.886 37.1895 118.534 37.9923 120.022 39.653C120.967 40.7084 121.503 41.8851 121.63 43.1831C121.766 44.4741 121.499 45.7688 120.83 47.0671L131.252 50.6962L131.377 50.8359L128.979 52.9831L119.162 49.4205ZM113.544 51.1577L116.978 48.0829C118.088 47.0892 118.712 46.0134 118.849 44.8554C118.995 43.6905 118.637 42.6269 117.775 41.6647C116.837 40.617 115.803 40.0952 114.674 40.0994C113.553 40.0965 112.399 40.6193 111.213 41.6678L107.791 44.7321L113.544 51.1577ZM132.004 36.6626C129.594 37.828 127.593 38.4036 126 38.3895C124.408 38.3607 123.084 37.7565 122.028 36.5769C120.833 35.2421 120.378 33.6642 120.663 31.8431C120.948 30.0072 121.945 28.3249 123.652 26.7962C124.816 25.7539 126.054 25.0513 127.365 24.6884C128.683 24.3186 129.946 24.3071 131.151 24.6539C132.364 24.9938 133.391 25.6332 134.232 26.5722L131.985 28.5839C131.068 27.5595 130.023 27.0482 128.85 27.0498C127.67 27.0437 126.486 27.5723 125.299 28.6354C124.197 29.6221 123.555 30.6379 123.371 31.6827C123.189 32.7128 123.484 33.6585 124.255 34.5199C124.873 35.2106 125.689 35.5359 126.702 35.4959C127.716 35.4412 129.102 34.9828 130.861 34.1209C132.628 33.252 134.122 32.7037 135.345 32.4761C136.568 32.2338 137.654 32.2605 138.605 32.5564C139.562 32.8453 140.427 33.4204 141.198 34.2818C142.428 35.6554 142.879 37.2368 142.552 39.0261C142.218 40.8076 141.154 42.501 139.361 44.1061C138.197 45.1484 136.913 45.9001 135.508 46.3611C134.096 46.8143 132.767 46.8996 131.521 46.6169C130.283 46.3273 129.223 45.6897 128.341 44.7041L130.587 42.6925C131.504 43.7169 132.607 44.1908 133.895 44.1143C135.183 44.0231 136.46 43.4112 137.725 42.2786C138.905 41.2224 139.593 40.1723 139.791 39.1283C139.989 38.0843 139.716 37.1471 138.972 36.3168C138.229 35.4864 137.365 35.1068 136.38 35.1778C135.388 35.2411 133.929 35.7361 132.004 36.6626ZM75.7667 151.638C75.4202 151.501 74.9232 151.149 74.2758 150.582C74.2058 152.518 73.4763 154.108 72.0872 155.352C70.8456 156.464 69.5124 157.028 68.0877 157.046C66.6638 157.048 65.469 156.51 64.5031 155.432C63.3287 154.12 62.9151 152.659 63.2622 151.048C63.6101 149.422 64.6881 147.799 66.4963 146.18L68.5916 144.304L67.7056 143.315C67.0316 142.562 66.2715 142.166 65.4253 142.127C64.5722 142.079 63.7072 142.449 62.8303 143.234C62.062 143.922 61.5916 144.692 61.4191 145.546C61.2466 146.4 61.407 147.102 61.9004 147.653L59.7353 149.592C59.1724 148.963 58.8516 148.16 58.7728 147.182C58.6948 146.189 58.8831 145.181 59.3379 144.159C59.8004 143.129 60.4896 142.205 61.4053 141.385C62.8564 140.085 64.3199 139.432 65.7957 139.425C67.2645 139.41 68.5842 140.025 69.7549 141.27L74.9456 147.067C75.9809 148.223 76.9518 149.011 77.8582 149.43L78.0249 149.616L75.7667 151.638ZM70.7234 153.197C71.3986 152.592 71.8824 151.844 72.175 150.953C72.4677 150.062 72.4996 149.215 72.2709 148.413L69.957 145.829L68.2691 147.34C65.6306 149.703 65.0028 151.656 66.3856 153.201C66.9901 153.876 67.6877 154.202 68.4783 154.179C69.2688 154.156 70.0172 153.829 70.7234 153.197ZM71.7176 132.57L73.205 134.091C73.0833 132.019 73.7985 130.288 75.3505 128.898C78.0123 126.514 80.6994 126.814 83.4119 129.796L90.8644 138.119L88.7109 140.048L81.248 131.713C80.4272 130.812 79.6166 130.328 78.8162 130.262C78.0235 130.189 77.1965 130.538 76.3351 131.309C75.6367 131.934 75.1904 132.67 74.9962 133.515C74.802 134.36 74.8285 135.217 75.0756 136.086L83.1118 145.061L80.9583 146.989L69.6806 134.394L71.7176 132.57ZM84.8714 120.792L86.3587 122.313C86.237 120.24 86.9522 118.51 88.5043 117.12C91.166 114.736 93.8532 115.036 96.5656 118.018L104.018 126.341L101.865 128.269L94.4017 119.935C93.5809 119.034 92.7703 118.55 91.9699 118.484C91.1772 118.411 90.3502 118.76 89.4888 119.531C88.7904 120.156 88.3441 120.892 88.1499 121.737C87.9558 122.582 87.9822 123.439 88.2293 124.308L96.2655 133.283L94.112 135.211L82.8343 122.616L84.8714 120.792ZM109.605 121.338L107.452 123.266L96.1743 110.671L98.3277 108.743L109.605 121.338ZM93.0082 107.487C92.6955 107.138 92.5362 106.749 92.5304 106.321C92.5322 105.886 92.7427 105.481 93.1618 105.105C93.5808 104.73 94.0067 104.565 94.4394 104.611C94.8721 104.657 95.2448 104.855 95.5575 105.204C95.8702 105.553 96.0221 105.942 96.0133 106.369C96.0045 106.797 95.7905 107.198 95.3715 107.573C94.9524 107.948 94.53 108.117 94.1042 108.079C93.6863 108.033 93.3209 107.836 93.0082 107.487ZM114.602 111.6L109.06 99.133L111.26 97.1631L118.022 113.802L116.38 115.272L100.539 106.763L102.739 104.793L114.602 111.6ZM129.882 103.602C128.175 105.13 126.285 105.815 124.214 105.657C122.135 105.49 120.255 104.468 118.574 102.59L118.219 102.195C117.101 100.945 116.34 99.6196 115.938 98.2179C115.537 96.8015 115.516 95.4357 115.876 94.1203C116.238 92.7903 116.919 91.6771 117.92 90.7807C119.557 89.3145 121.313 88.7142 123.187 88.9799C125.06 89.2456 126.897 90.3834 128.697 92.3933L129.499 93.2896L120.967 100.93C122.11 102.144 123.371 102.825 124.749 102.975C126.129 103.11 127.354 102.699 128.425 101.74C129.185 101.059 129.69 100.327 129.94 99.5437C130.19 98.7608 130.283 97.9361 130.22 97.0695L132.453 96.9161C132.85 99.483 131.993 101.711 129.882 103.602ZM119.504 92.55C118.635 93.3283 118.19 94.2996 118.17 95.4641C118.143 96.6208 118.571 97.832 119.453 99.0979L125.762 93.4486L125.616 93.2856C124.574 92.247 123.522 91.6652 122.459 91.5401C121.389 91.4073 120.404 91.744 119.504 92.55ZM133.629 80.6153C133.254 80.8528 132.877 81.1418 132.497 81.4823C131.084 82.747 130.665 84.2066 131.237 85.8611L139.242 94.801L137.089 96.7292L125.811 84.1343L127.906 82.2581L129.244 83.6819C128.943 81.9243 129.44 80.4653 130.736 79.3049C131.155 78.9296 131.522 78.6991 131.836 78.6131L133.629 80.6153ZM149.509 79.5883C148.988 79.0063 148.364 78.7542 147.637 78.8321C146.91 78.8953 145.896 79.3004 144.593 80.0473C143.298 80.7873 142.183 81.2828 141.247 81.5336C140.318 81.7774 139.498 81.8133 138.784 81.6411C138.079 81.462 137.448 81.0621 136.892 80.4412C135.968 79.4091 135.621 78.147 135.85 76.6548C136.088 75.1556 136.886 73.798 138.244 72.582C139.672 71.3034 141.158 70.6367 142.703 70.5818C144.256 70.5199 145.546 71.0632 146.574 72.2117L144.409 74.1504C143.881 73.5606 143.174 73.2782 142.287 73.303C141.408 73.3209 140.589 73.6704 139.828 74.3513C139.044 75.0532 138.584 75.7728 138.448 76.5104C138.311 77.2479 138.489 77.8922 138.983 78.4431C139.448 78.9631 140.005 79.1708 140.652 79.0664C141.3 78.962 142.267 78.5506 143.553 77.8322C144.847 77.1069 145.978 76.6123 146.944 76.3484C147.91 76.0845 148.764 76.0468 149.506 76.2353C150.249 76.4091 150.923 76.8335 151.527 77.5087C152.535 78.6339 152.894 79.941 152.605 81.43C152.31 82.9112 151.444 84.2945 150.008 85.58C149 86.4834 147.947 87.104 146.852 87.4419C145.756 87.7798 144.702 87.8286 143.69 87.5883C142.679 87.3334 141.839 86.8334 141.172 86.0884L143.326 84.1601C144.011 84.8471 144.812 85.1642 145.73 85.1116C146.648 85.0442 147.55 84.6145 148.435 83.8223C149.249 83.0927 149.755 82.3461 149.952 81.5824C150.15 80.804 150.003 80.1393 149.509 79.5883ZM165.235 71.5263C164.889 71.3891 164.392 71.0371 163.744 70.4702C163.674 72.4065 162.945 73.9965 161.556 75.2404C160.314 76.3522 158.981 76.9167 157.556 76.934C156.132 76.9366 154.938 76.3985 153.972 75.3198C152.797 74.0083 152.384 72.547 152.731 70.9359C153.079 69.31 154.157 67.6876 155.965 66.0685L158.06 64.1924L157.174 63.2029C156.5 62.4502 155.74 62.0542 154.894 62.0148C154.041 61.9678 153.176 62.3368 152.299 63.122C151.531 63.81 151.06 64.5807 150.888 65.4343C150.715 66.2879 150.876 66.9902 151.369 67.5411L149.204 69.4798C148.641 68.8512 148.32 68.0479 148.241 67.0698C148.163 66.077 148.352 65.0694 148.806 64.0469C149.269 63.0176 149.958 62.0929 150.874 61.273C152.325 59.9736 153.788 59.3203 155.264 59.3132C156.733 59.2984 158.053 59.9134 159.223 61.1583L164.414 66.9552C165.449 68.1115 166.42 68.8991 167.327 69.3179L167.494 69.5042L165.235 71.5263ZM160.192 73.0848C160.867 72.4803 161.351 71.7324 161.644 70.8412C161.936 69.95 161.968 69.1034 161.739 68.3015L159.426 65.7173L157.738 67.2286C155.099 69.5912 154.471 71.5446 155.854 73.0889C156.459 73.7641 157.156 74.0903 157.947 74.0675C158.737 74.0447 159.486 73.7172 160.192 73.0848ZM166.967 50.7636C166.593 51.0012 166.215 51.2902 165.835 51.6307C164.423 52.8953 164.003 54.3549 164.575 56.0094L172.58 64.9493L170.427 66.8776L159.149 54.2826L161.244 52.4064L162.582 53.8302C162.281 52.0726 162.778 50.6136 164.074 49.4532C164.493 49.078 164.86 48.8474 165.175 48.7615L166.967 50.7636ZM180.011 52.612L174.491 40.545L176.796 38.4812L184.751 57.5542C185.843 60.3513 185.536 62.5142 183.829 64.0429L183.39 64.3728L182.451 64.9407L180.888 63.1946L181.511 62.72C182.241 62.0668 182.675 61.4121 182.815 60.7559C182.962 60.0927 182.817 59.2511 182.379 58.2311L181.709 56.5233L166.064 48.0913L168.415 45.9858L180.011 52.612Z" fill="url(#paint0_linear)"/>
<defs>
<linearGradient id="paint0_linear" x1="21" y1="107" x2="248.211" y2="62.0132" gradientUnits="userSpaceOnUse">
<stop stop-color="#00C2FF"/>
<stop offset="0.9998" stop-color="#FF00C7" stop-opacity="0"/>
<stop offset="0.9999" stop-color="#BE31EC" stop-opacity="0.255208"/>
<stop offset="1" stop-color="#FF00E5" stop-opacity="0"/>
</linearGradient>
</defs>
</svg>
